<?xml version="1.0" standalone="no"?>
<!DOCTYPE svg PUBLIC "-//W3C//DTD SVG 20010904//EN"
 "http://www.w3.org/TR/2001/REC-SVG-20010904/DTD/svg10.dtd">
<svg version="1.0" xmlns="http://www.w3.org/2000/svg"
 width="24" height="24" viewBox="0 0 24 24"
 preserveAspectRatio="xMidYMid meet">

<g transform="translate(0,24) scale(0.0046875,-0.0046875)"
fill="#000000" stroke="none">
<path d="M510 4671 c-73 -23 -125 -57 -183 -120 -118 -127 -145 -310 -70 -470
31 -65 120 -159 181 -190 105 -54 -2 -51 2122 -51 1734 0 1973 2 2025 15 212
56 351 264 315 474 -24 144 -130 281 -257 333 l-58 23 -2010 2 c-1900 2 -2013
1 -2065 -16z"/>
<path d="M1847 2980 c-221 -38 -383 -262 -348 -481 30 -185 173 -329 357 -359
79 -13 2609 -13 2688 0 184 30 327 174 357 359 36 224 -127 444 -357 481 -72
12 -2627 11 -2697 0z"/>
<path d="M3093 1265 c-81 -22 -132 -52 -193 -114 -164 -164 -168 -418 -9 -586
60 -64 113 -97 190 -119 50 -15 136 -16 780 -14 l724 3 58 23 c80 33 178 125
217 206 120 247 -11 532 -275 601 -84 22 -1411 21 -1492 0z"/>
</g>
</svg>